<svg width="20" height="20" viewBox="0 0 20 20" fill="none" xmlns="http://www.w3.org/2000/svg">
<path d="M10 0C4.47717 0 0 4.47711 0 10C0 15.5228 4.47717 20 10 20C15.5228 20 20 15.5228 20 10C20 4.47711 15.5228 0 10 0ZM16.9175 6H14.123C13.866 4.69385 13.4856 3.539 13.0167 2.59509C14.6632 3.26837 16.0326 4.47571 16.9175 6ZM18 10C18 10.6917 17.9025 11.3594 17.7367 12H14.4096C14.4686 11.3537 14.5 10.685 14.5 10C14.5 9.315 14.4686 8.6463 14.4096 8H17.7367C17.9025 8.64056 18 9.30835 18 10ZM10 18C9.56439 18 8.51544 16.605 7.92419 14H12.0758C11.4846 16.605 10.4356 18 10 18ZM7.60193 12C7.53857 11.377 7.5 10.713 7.5 10C7.5 9.28699 7.53857 8.62299 7.60193 8H12.3981C12.4614 8.62299 12.5 9.28699 12.5 10C12.5 10.713 12.4614 11.377 12.3981 12H7.60193ZM2 10C2 9.30835 2.09753 8.64056 2.26331 8H5.59039C5.53137 8.6463 5.5 9.315 5.5 10C5.5 10.685 5.53137 11.3537 5.59039 12H2.26331C2.09747 11.3594 2 10.6917 2 10ZM10 2C10.4356 2 11.4846 3.3949 12.0759 6H7.92413C8.51538 3.3949 9.56439 2 10 2ZM6.98328 2.59509C6.5144 3.539 6.13397 4.69385 5.87695 6H3.08246C3.96741 4.47571 5.33679 3.26837 6.98328 2.59509ZM3.08246 14H5.87695C6.13397 15.3062 6.51434 16.4609 6.98328 17.4048C5.33679 16.7316 3.96741 15.5243 3.08246 14ZM13.0167 17.4048C13.4857 16.4609 13.866 15.3062 14.123 14H16.9175C16.0326 15.5243 14.6632 16.7316 13.0167 17.4048Z" fill="white"/>
</svg>
