<svg width="62" height="62" viewBox="0 0 62 62" fill="none" xmlns="http://www.w3.org/2000/svg">
<rect width="62" height="62" rx="12.9199" fill="#4230DD"/>
<circle cx="30.5156" cy="30.6771" r="22.9271" fill="#1CBC52"/>
<path fill-rule="evenodd" clip-rule="evenodd" d="M30.5156 53.6042C43.1779 53.6042 53.4427 43.3394 53.4427 30.6771C53.4427 18.0148 43.1779 7.75 30.5156 7.75C17.8534 7.75 7.58856 18.0148 7.58856 30.6771C7.58856 43.3394 17.8534 53.6042 30.5156 53.6042ZM37.0195 16.824C37.3319 16.7369 37.6647 16.7807 37.9452 16.9458C38.2258 17.1109 38.4312 17.3838 38.5166 17.705L38.5172 17.7071L40.793 26.3497C40.9313 26.7718 41.044 27.2025 41.1305 27.6393C41.5278 29.611 41.3986 31.6582 40.7565 33.5632C40.1142 35.4687 38.9829 37.1605 37.483 38.4583C35.9831 39.7562 34.1707 40.6115 32.2389 40.9333C31.5356 41.0505 30.8261 41.0953 30.1205 41.069L32.9604 35.7797C33.3994 34.9621 33.1113 33.9331 32.3169 33.4814C31.5225 33.0297 30.5227 33.3264 30.0837 34.144L26.6727 40.4472L26.4734 40.8212L24.9178 43.6877C24.5018 44.454 23.5615 44.7274 22.8175 44.2983C22.0735 43.8691 21.8076 42.8999 22.2235 42.1336L23.6541 39.4975L24.0674 38.7537L30.2382 27.203C30.6809 26.3875 30.3974 25.3572 29.605 24.9017C28.8127 24.4462 27.8115 24.7381 27.3689 25.5536L21.675 36.0433C21.3507 35.5152 21.0688 34.9574 20.8334 34.375C19.9984 32.3089 19.7878 30.0297 20.2293 27.8348C20.6707 25.6399 21.7436 23.6312 23.3081 22.071C24.8628 20.5203 26.8313 19.484 28.9594 19.0954L37.0183 16.8243L37.0195 16.824Z" fill="white"/>
</svg>
