<svg width="36" height="37" viewBox="0 0 36 37" fill="none" xmlns="http://www.w3.org/2000/svg">
<g clip-path="url(#clip0)">
<path d="M4.752 21.624C4.752 19.0427 5.39733 16.5787 6.688 14.232C8.03733 11.8267 9.768 9.89066 11.88 8.424L15.136 11.064C13.728 12.0027 12.4667 13.264 11.352 14.848C10.296 16.3733 9.68 17.84 9.504 19.248L9.944 19.16C10.2373 19.1013 10.472 19.072 10.648 19.072C11.88 19.072 12.9067 19.512 13.728 20.392C14.5493 21.2133 14.96 22.2693 14.96 23.56C14.96 24.9093 14.4907 26.0533 13.552 26.992C12.6133 27.872 11.4987 28.312 10.208 28.312C8.68267 28.312 7.392 27.7253 6.336 26.552C5.28 25.32 4.752 23.6773 4.752 21.624ZM18.832 21.624C18.832 19.0427 19.4773 16.5787 20.768 14.232C22.1173 11.8267 23.848 9.89066 25.96 8.424L29.216 11.064C27.808 12.0027 26.5467 13.264 25.432 14.848C24.376 16.3733 23.76 17.84 23.584 19.248C23.6427 19.248 23.8187 19.2187 24.112 19.16C24.4053 19.1013 24.6107 19.072 24.728 19.072C25.96 19.072 26.9867 19.512 27.808 20.392C28.6293 21.2133 29.04 22.2693 29.04 23.56C29.04 24.9093 28.5707 26.0533 27.632 26.992C26.6933 27.872 25.5787 28.312 24.288 28.312C22.7627 28.312 21.472 27.7253 20.416 26.552C19.36 25.32 18.832 23.6773 18.832 21.624Z" fill="#4230DD"/>
</g>
<defs>
<clipPath id="clip0">
<rect width="36" height="37" fill="white"/>
</clipPath>
</defs>
</svg>
