<svg width="24" height="20" viewBox="0 0 24 20" fill="none" xmlns="http://www.w3.org/2000/svg">
<path d="M7.53914 19.913C16.5956 19.913 21.5511 12.2833 21.5511 5.67798C21.5511 5.46334 21.5511 5.24869 21.5415 5.03404C22.5019 4.33156 23.3375 3.4437 24.0001 2.43876C23.1166 2.83879 22.1658 3.10222 21.167 3.22906C22.185 2.61439 22.9629 1.62896 23.3375 0.458156C22.3867 1.0338 21.3303 1.44358 20.2066 1.66799C19.3038 0.692317 18.0265 0.0874023 16.6148 0.0874023C13.8969 0.0874023 11.688 2.33144 11.688 5.09258C11.688 5.48285 11.736 5.86336 11.8128 6.23412C7.72161 6.02923 4.09136 4.0291 1.66159 1.00453C1.23902 1.74604 0.998922 2.60463 0.998922 3.52176C0.998922 5.25845 1.87287 6.79025 3.1886 7.68786C2.38188 7.65859 1.62317 7.43419 0.960506 7.06343C0.960506 7.08295 0.960506 7.10246 0.960506 7.13173C0.960506 9.55139 2.66039 11.5808 4.90768 12.0393C4.49472 12.1564 4.06255 12.215 3.61117 12.215C3.29424 12.215 2.98692 12.1857 2.6892 12.1272C3.31345 14.1175 5.13818 15.5615 7.28944 15.6005C5.59916 16.947 3.47671 17.747 1.17179 17.747C0.778034 17.747 0.384276 17.7275 0.00012207 17.6787C2.17059 19.0837 4.76363 19.913 7.53914 19.913Z" fill="#CAF4E0"/>
</svg>
