<svg width="97" height="32" viewBox="0 0 97 32" fill="none" xmlns="http://www.w3.org/2000/svg">
<g clip-path="url(#clip0)">
<path d="M88.3811 0.0511475H7.65092C7.35641 0.0511475 7.06508 0.0511475 6.77219 0.0527447C6.52662 0.0543423 6.28267 0.0591349 6.03471 0.0631286C5.49586 0.0689854 4.95822 0.115715 4.42652 0.202911C3.89586 0.292537 3.38182 0.461379 2.90178 0.703732C2.42167 0.94843 1.98302 1.26646 1.60176 1.64626C1.21918 2.02433 0.900257 2.46125 0.657237 2.94024C0.413344 3.41857 0.244212 3.93114 0.155682 4.46027C0.0663882 4.98881 0.0183627 5.52346 0.0120373 6.05939C0.00401242 6.30461 0.00401242 6.5506 0 6.79503V25.2599C0.00401242 25.5075 0.00481492 25.7471 0.0120373 25.9955C0.0186247 26.5315 0.0669185 27.0661 0.156485 27.5946C0.244444 28.1242 0.413316 28.6375 0.657237 29.1162C0.900488 29.5934 1.21973 30.0283 1.60257 30.4038C1.98194 30.7848 2.42033 31.1029 2.90098 31.3455C3.3813 31.5884 3.89556 31.7582 4.42652 31.8487C4.95828 31.9357 5.49583 31.983 6.03471 31.9901C6.28347 31.9959 6.52662 31.9989 6.77219 31.9989C7.06591 32.0005 7.35641 32.0005 7.65092 32.0005H88.3811C88.6699 32.0005 88.962 32.0005 89.2511 31.9989C89.4948 31.9989 89.746 31.9959 89.9908 31.991C90.5286 31.9838 91.0652 31.9365 91.5958 31.8487C92.1283 31.7574 92.6444 31.5878 93.1269 31.3455C93.6072 31.1029 94.0455 30.7848 94.4247 30.4038C94.8067 30.0264 95.1268 29.5912 95.3733 29.1148C95.6156 28.6356 95.783 28.1225 95.8698 27.593C95.9591 27.0644 96.0088 26.5299 96.0184 25.9939C96.0215 25.7463 96.0215 25.5067 96.0215 25.2583C96.0281 24.9675 96.0281 24.6792 96.0281 24.3844V7.66809C96.0281 7.37574 96.0281 7.08498 96.0215 6.79583C96.0215 6.55142 96.0215 6.30541 96.0184 6.06098C96.0088 5.52474 95.9594 4.98996 95.8698 4.46109C95.7824 3.93221 95.6148 3.41969 95.3724 2.94103C94.8773 1.98023 94.0919 1.19807 93.1269 0.70453C92.6444 0.462725 92.1283 0.293926 91.5958 0.203709C91.0652 0.115877 90.5286 0.0688771 89.9908 0.0631286C89.746 0.0591349 89.4948 0.0543423 89.2511 0.0527447C88.962 0.0511475 88.6691 0.0511475 88.3811 0.0511475Z" fill="#A6A6A6"/>
<path d="M6.77639 31.3016C6.53161 31.3016 6.29329 31.2983 6.05094 31.2934C5.54814 31.2869 5.04655 31.2431 4.55027 31.1624C4.08792 31.0831 3.64003 30.9357 3.22137 30.7248C2.80639 30.5159 2.42787 30.2418 2.10029 29.9133C1.76811 29.5884 1.49161 29.2112 1.28175 28.7974C1.06915 28.3811 0.92192 27.9348 0.845201 27.4739C0.76278 26.9788 0.718249 26.4781 0.711987 25.9762C0.70637 25.8085 0.699951 25.247 0.699951 25.247V6.79573C0.699951 6.79573 0.707172 6.24298 0.711987 6.08084C0.717969 5.57978 0.762233 5.07993 0.844399 4.58557C0.921126 4.12351 1.06834 3.67584 1.28095 3.25803C1.49017 2.84452 1.76523 2.46743 2.09548 2.14138C2.42526 1.81211 2.80491 1.53638 3.22057 1.32425C3.63838 1.11409 4.08553 0.967612 4.54708 0.889727C5.04491 0.808701 5.54814 0.764913 6.05253 0.758729L6.77639 0.749146H89.2471L89.9799 0.759528C90.4795 0.765299 90.9779 0.808556 91.4709 0.888928C91.9372 0.967779 92.3892 1.1153 92.8118 1.32664C93.6447 1.75388 94.3223 2.42979 94.7498 3.25962C94.9587 3.67463 95.1035 4.1187 95.1791 4.57679C95.2626 5.07514 95.309 5.57891 95.3186 6.08404C95.3211 6.31007 95.3211 6.5537 95.3211 6.79494C95.3277 7.09445 95.3277 7.37961 95.3277 7.66717V24.3843C95.3277 24.6743 95.3277 24.9578 95.3211 25.243C95.3211 25.5026 95.3211 25.7406 95.3178 25.9858C95.3088 26.4818 95.2631 26.9765 95.1815 27.466C95.1068 27.9301 94.9606 28.3801 94.7482 28.7999C94.5366 29.2093 94.2616 29.5829 93.9329 29.907C93.6048 30.2374 93.2256 30.5128 92.8093 30.7232C92.3878 30.9357 91.9366 31.0839 91.4709 31.1624C90.9749 31.2431 90.4734 31.2866 89.9711 31.2929C89.7359 31.2983 89.4894 31.3016 89.2512 31.3016L88.3812 31.303L6.77639 31.3016Z" fill="black"/>
<path d="M19.8761 16.2651C19.8848 15.5986 20.0628 14.9451 20.3933 14.3654C20.7239 13.7857 21.1963 13.2986 21.7668 12.9495C21.4043 12.4342 20.9263 12.0102 20.3705 11.7109C19.8147 11.4117 19.1964 11.2456 18.5648 11.2257C17.2167 11.0852 15.9102 12.0285 15.2233 12.0285C14.5235 12.0285 13.4658 11.2393 12.3279 11.2633C11.5915 11.2869 10.8737 11.5001 10.2447 11.882C9.6156 12.2638 9.09665 12.8014 8.73839 13.4423C7.18639 16.1165 8.34438 20.0472 9.83056 22.2094C10.5745 23.2678 11.4436 24.4499 12.5815 24.4084C13.6945 24.3621 14.1102 23.7015 15.4544 23.7015C16.7849 23.7015 17.1749 24.4084 18.3353 24.382C19.5302 24.3621 20.2822 23.3181 20.9996 22.2494C21.5344 21.4953 21.9461 20.6617 22.2194 19.7796C21.5252 19.4875 20.9329 18.9985 20.5161 18.3735C20.0994 17.7485 19.8768 17.0152 19.8761 16.2651ZM17.6837 9.80314C18.335 9.02521 18.656 8.0252 18.5785 7.0155C17.5834 7.11946 16.6641 7.5929 16.0041 8.34142C15.6815 8.70683 15.4343 9.13193 15.2768 9.59243C15.1193 10.0529 15.0545 10.5398 15.0861 11.0252C15.5837 11.0304 16.0761 10.923 16.526 10.7113C16.9759 10.4996 17.3718 10.1891 17.6837 9.80314Z" fill="white"/>
<path d="M33.9461 21.7286H30.1486L29.2363 24.4092H27.6272L31.2257 14.4903H32.8972L36.4947 24.4092H34.8584L33.9461 21.7286ZM30.541 20.4905H33.552L32.0674 16.1405H32.0265L30.541 20.4905ZM44.2644 20.7941C44.2644 23.041 43.0559 24.4843 41.2319 24.4843C40.77 24.5083 40.3109 24.4024 39.9067 24.1788C39.5024 23.9552 39.1697 23.6229 38.9463 23.2199H38.9119V26.8015H37.4193V17.1773H38.8636V18.3802H38.8902C39.1238 17.979 39.4623 17.6482 39.8696 17.4232C40.2771 17.1981 40.7381 17.0872 41.2036 17.1022C43.048 17.1022 44.2636 18.5528 44.2636 20.7941H44.2644ZM42.7317 20.7941C42.7317 19.3299 41.9708 18.3675 40.8112 18.3675C39.6717 18.3675 38.9053 19.3499 38.9053 20.7941C38.9053 22.251 39.6717 23.2271 40.8112 23.2271C41.9708 23.2271 42.7317 22.271 42.7317 20.7941ZM52.2611 20.7941C52.2611 23.041 51.0526 24.4843 49.2286 24.4843C48.7667 24.5083 48.3076 24.4024 47.9034 24.1788C47.4992 23.9552 47.1664 23.6229 46.943 23.2199H46.9086V26.8015H45.4169V17.1773H46.8606V18.3802H46.8878C47.1213 17.979 47.4599 17.6482 47.8671 17.4232C48.2746 17.1981 48.7357 17.0872 49.2014 17.1022C51.0455 17.1022 52.2611 18.5528 52.2611 20.7941ZM50.7284 20.7941C50.7284 19.3299 49.9678 18.3675 48.8082 18.3675C47.6687 18.3675 46.9021 19.3499 46.9021 20.7941C46.9021 22.251 47.6687 23.2271 48.8082 23.2271C49.9678 23.2271 50.7276 22.271 50.7276 20.7941H50.7284ZM57.5455 21.6455C57.6562 22.6296 58.616 23.275 59.9289 23.275C61.1858 23.275 62.0901 22.6296 62.0901 21.7422C62.0901 20.9722 61.5444 20.5121 60.2523 20.1958L58.9611 19.8859C57.1314 19.4466 56.2817 18.5943 56.2817 17.2117C56.2817 15.5007 57.7798 14.325 59.908 14.325C62.0137 14.325 63.4574 15.5007 63.5057 17.2117H62.0002C61.9104 16.222 61.0885 15.6245 59.8863 15.6245C58.6844 15.6245 57.8634 16.2292 57.8634 17.1086C57.8634 17.8099 58.3882 18.2229 59.6731 18.5384L60.7708 18.8068C62.8155 19.2884 63.6646 20.1055 63.6646 21.5569C63.6646 23.4124 62.1799 24.5746 59.8182 24.5746C57.6081 24.5746 56.1155 23.4403 56.0193 21.6455H57.5455ZM66.8834 15.4664V17.1773H68.2652V18.3531H66.8834V22.3396C66.8834 22.9595 67.1601 23.2478 67.7676 23.2478C67.9317 23.245 68.0951 23.2335 68.2578 23.2135V24.3821C67.985 24.4328 67.7074 24.4559 67.4299 24.4508C65.9587 24.4508 65.385 23.9004 65.385 22.4978V18.3531H64.329V17.1773H65.385V15.4664H66.8834ZM69.0651 20.7941C69.0651 18.5184 70.4118 17.0886 72.5112 17.0886C74.6176 17.0886 75.9578 18.5184 75.9578 20.7941C75.9578 23.0753 74.6248 24.4987 72.5112 24.4987C70.3981 24.4987 69.0651 23.0753 69.0651 20.7941ZM74.438 20.7941C74.438 19.2333 73.7197 18.3115 72.5112 18.3115C71.3027 18.3115 70.5852 19.2397 70.5852 20.7941C70.5852 22.3612 71.3027 23.275 72.5112 23.275C73.7197 23.275 74.438 22.3612 74.438 20.7941ZM77.1871 17.1773H78.61V18.4082H78.6446C78.741 18.024 78.9672 17.6845 79.2854 17.4467C79.6033 17.2089 79.994 17.0873 80.3916 17.1022C80.5634 17.1015 80.7348 17.12 80.9027 17.1573V18.5456C80.6857 18.4796 80.4595 18.4495 80.2325 18.4561C80.016 18.4473 79.8 18.4854 79.5995 18.5675C79.3989 18.6497 79.2186 18.7741 79.071 18.9322C78.9232 19.0902 78.8116 19.2782 78.7441 19.4832C78.6762 19.6883 78.6537 19.9054 78.6781 20.1199V24.4092H77.1871V17.1773ZM87.7783 22.2853C87.5777 23.5977 86.294 24.4987 84.6502 24.4987C82.5366 24.4987 81.2245 23.0897 81.2245 20.8284C81.2245 18.5599 82.5437 17.0886 84.587 17.0886C86.5979 17.0886 87.861 18.4625 87.861 20.6559V21.1647H82.73V21.2542C82.7064 21.5203 82.7399 21.7884 82.8284 22.0407C82.9169 22.2929 83.0581 22.5236 83.2431 22.7173C83.428 22.911 83.6522 23.0633 83.9006 23.1641C84.1493 23.265 84.4167 23.312 84.6848 23.3022C85.0371 23.3349 85.3908 23.2537 85.6927 23.0705C85.995 22.8873 86.2297 22.6119 86.3621 22.2853H87.7783ZM82.7372 20.1271H86.3693C86.3827 19.8878 86.3464 19.6484 86.2624 19.4238C86.1786 19.1992 86.0489 18.9942 85.8815 18.8219C85.7142 18.6495 85.513 18.5135 85.2902 18.4222C85.0676 18.3309 84.8285 18.2864 84.5878 18.2916C84.3449 18.2901 84.1042 18.3365 83.8795 18.4281C83.6547 18.5198 83.4502 18.6548 83.2782 18.8255C83.1062 18.9962 82.9697 19.199 82.8768 19.4224C82.7842 19.6458 82.7366 19.8853 82.7372 20.1271Z" fill="white"/>
<path d="M30.354 7.02426C30.6667 7.00191 30.9802 7.04893 31.2726 7.16191C31.5647 7.2749 31.8282 7.45101 32.0436 7.67755C32.2593 7.90412 32.4217 8.17547 32.519 8.47203C32.6165 8.76862 32.6468 9.08301 32.6072 9.39256C32.6072 10.915 31.7807 11.7904 30.354 11.7904H28.6245V7.02344L30.354 7.02426ZM29.3683 11.1163H30.2713C30.4947 11.1295 30.7181 11.0929 30.9255 11.0093C31.133 10.9257 31.319 10.7971 31.4702 10.6329C31.6213 10.4687 31.7339 10.2731 31.7996 10.0602C31.865 9.84729 31.8823 9.62247 31.8496 9.40213C31.8799 9.18267 31.8612 8.95922 31.7944 8.74786C31.7279 8.53647 31.615 8.34239 31.4641 8.17949C31.3133 8.01659 31.1281 7.88892 30.922 7.80561C30.7156 7.7223 30.4936 7.6854 30.2713 7.6976H29.3683V11.1163ZM33.4467 9.99003C33.425 9.75411 33.4527 9.51624 33.5283 9.29164C33.6041 9.06704 33.7261 8.8606 33.8866 8.68555C34.0468 8.51051 34.2422 8.37069 34.4601 8.27502C34.6777 8.17935 34.9132 8.12993 35.1511 8.12993C35.3891 8.12993 35.6246 8.17935 35.8422 8.27502C36.0601 8.37069 36.2555 8.51051 36.4157 8.68555C36.5762 8.8606 36.6982 9.06704 36.774 9.29164C36.8496 9.51624 36.8776 9.75411 36.8556 9.99003C36.8792 10.2269 36.8529 10.4662 36.7781 10.6923C36.7031 10.9184 36.5817 11.1264 36.4212 11.3029C36.2604 11.4794 36.0645 11.6205 35.8461 11.717C35.6273 11.8136 35.3907 11.8635 35.1514 11.8635C34.9123 11.8635 34.6758 11.8136 34.457 11.717C34.2386 11.6205 34.0427 11.4794 33.8819 11.3029C33.7214 11.1264 33.6 10.9184 33.525 10.6923C33.4502 10.4662 33.4239 10.2269 33.4475 9.99003H33.4467ZM36.1222 9.99003C36.1222 9.21043 35.7699 8.75437 35.1528 8.75437C34.5323 8.75437 34.1842 9.21043 34.1842 9.99003C34.1842 10.776 34.5323 11.2281 35.1528 11.2281C35.7708 11.2281 36.1222 10.7728 36.1222 9.99003ZM41.3857 11.7904H40.6457L39.8994 9.14096H39.8433L39.0995 11.7904H38.3666L37.37 8.19363H38.0938L38.7406 10.9382H38.7945L39.5375 8.19363H40.2211L40.9644 10.9382H41.0205L41.6648 8.19363H42.3785L41.3857 11.7904ZM43.2163 8.19363H43.9024V8.76473H43.9552C44.0456 8.55952 44.1981 8.38751 44.3915 8.27267C44.585 8.15785 44.8095 8.10591 45.0337 8.12413C45.2095 8.111 45.3862 8.1374 45.5503 8.20137C45.7146 8.26537 45.8621 8.36531 45.9825 8.49377C46.1026 8.62226 46.1922 8.776 46.2444 8.9436C46.2968 9.11123 46.3106 9.28841 46.2848 9.46206V11.7904H45.5714V9.64017C45.5714 9.06187 45.3194 8.77433 44.7913 8.77433C44.6721 8.76883 44.5528 8.78907 44.4421 8.83368C44.3313 8.87826 44.2316 8.94617 44.1497 9.03274C44.0678 9.1193 44.0057 9.22247 43.9675 9.33515C43.9293 9.44786 43.9161 9.56744 43.9288 9.6857V11.7904H43.2163V8.19363ZM47.4213 6.78943H48.1338V11.7896H47.4213V6.78943ZM49.1257 9.99003C49.1032 9.75381 49.1304 9.5155 49.206 9.29041C49.2812 9.06531 49.4033 8.85838 49.5637 8.68287C49.7239 8.50736 49.9196 8.36714 50.1375 8.27117C50.3556 8.17522 50.5914 8.12566 50.8296 8.12566C51.0682 8.12566 51.3039 8.17522 51.5218 8.27117C51.74 8.36714 51.9354 8.50736 52.0958 8.68287C52.2563 8.85838 52.378 9.06531 52.4536 9.29041C52.5289 9.5155 52.5564 9.75381 52.5338 9.99003C52.5575 10.2269 52.5311 10.4662 52.4564 10.6923C52.3813 10.9184 52.2599 11.1264 52.0991 11.3029C51.9387 11.4794 51.7427 11.6205 51.524 11.717C51.3056 11.8136 51.069 11.8635 50.8296 11.8635C50.5906 11.8635 50.354 11.8136 50.1353 11.717C49.9168 11.6205 49.7209 11.4794 49.5602 11.3029C49.3997 11.1264 49.278 10.9184 49.2032 10.6923C49.1285 10.4662 49.1018 10.2269 49.1257 9.99003ZM51.8005 9.99003C51.8005 9.21043 51.4482 8.75437 50.831 8.75437C50.2106 8.75437 49.8624 9.21043 49.8624 9.99003C49.8624 10.776 50.2106 11.2281 50.831 11.2281C51.4487 11.2281 51.8005 10.7728 51.8005 9.99003ZM53.284 10.7728C53.284 10.1258 53.7687 9.752 54.6291 9.69927L55.6081 9.64337V9.33266C55.6081 8.95323 55.3553 8.73837 54.8681 8.73837C54.4694 8.73837 54.1941 8.88376 54.1147 9.13776H53.4247C53.4967 8.52033 54.0809 8.12334 54.9011 8.12334C55.8062 8.12334 56.3176 8.57303 56.3176 9.33266V11.7904H55.6315V11.2848H55.5751C55.4605 11.4662 55.2998 11.614 55.1091 11.7132C54.9184 11.8124 54.7043 11.8595 54.4895 11.8495C54.3378 11.8653 54.1845 11.8492 54.0394 11.8023C53.8943 11.7554 53.7605 11.6788 53.647 11.5773C53.5335 11.4758 53.4428 11.3518 53.3804 11.2133C53.3181 11.0747 53.2854 10.9247 53.2848 10.7728H53.284ZM55.6073 10.4661V10.165L54.7247 10.2209C54.2271 10.2544 54.0023 10.423 54.0023 10.7401C54.0023 11.0636 54.2839 11.2513 54.6716 11.2513C54.7851 11.2627 54.9 11.2512 55.0091 11.2177C55.1179 11.1841 55.2193 11.1291 55.3064 11.0558C55.3938 10.9826 55.4652 10.8927 55.5172 10.7913C55.5688 10.69 55.5993 10.5794 55.6073 10.4661ZM57.2549 9.99003C57.2549 8.8534 57.8424 8.13373 58.7555 8.13373C58.9813 8.1235 59.2053 8.17741 59.4012 8.28914C59.5974 8.40086 59.7576 8.56581 59.8628 8.76473H59.9167V6.78943H60.6292V11.7896H59.9464V11.2225H59.8903C59.7765 11.4202 59.6106 11.5831 59.4103 11.6937C59.2102 11.8042 58.9835 11.8581 58.7546 11.8495C57.8358 11.8495 57.2549 11.1299 57.2549 9.99003ZM57.9916 9.99003C57.9916 10.7528 58.3526 11.2121 58.9569 11.2121C59.5586 11.2121 59.9296 10.7465 59.9296 9.99323C59.9296 9.24399 59.554 8.77113 58.9569 8.77113C58.3568 8.77113 57.9916 9.23439 57.9916 9.99003ZM63.5801 9.99003C63.5575 9.75381 63.585 9.5155 63.6603 9.29041C63.7356 9.06531 63.8576 8.85838 64.0181 8.68287C64.1786 8.50736 64.3739 8.36714 64.5918 8.27117C64.81 8.17522 65.0458 8.12566 65.284 8.12566C65.5225 8.12566 65.7583 8.17522 65.9762 8.27117C66.1944 8.36714 66.3897 8.50736 66.5502 8.68287C66.7107 8.85838 66.8324 9.06531 66.908 9.29041C66.9833 9.5155 67.0107 9.75381 66.9882 9.99003C67.0118 10.2269 66.9855 10.4662 66.9107 10.6923C66.8357 10.9184 66.7142 11.1264 66.5535 11.3029C66.393 11.4794 66.1971 11.6205 65.9787 11.717C65.7599 11.8136 65.5233 11.8635 65.284 11.8635C65.0449 11.8635 64.8084 11.8136 64.5896 11.717C64.3712 11.6205 64.1753 11.4794 64.0145 11.3029C63.854 11.1264 63.7326 10.9184 63.6576 10.6923C63.5828 10.4662 63.5564 10.2269 63.5801 9.99003ZM66.2548 9.99003C66.2548 9.21043 65.9034 8.75437 65.2854 8.75437C64.6657 8.75437 64.3168 9.21043 64.3168 9.99003C64.3168 10.776 64.6657 11.2281 65.2854 11.2281C65.9034 11.2281 66.2548 10.7728 66.2548 9.99003ZM67.9455 8.19363H68.6317V8.76473H68.6847C68.7751 8.55952 68.9276 8.38751 69.1211 8.27267C69.3142 8.15785 69.5387 8.10591 69.7632 8.12413C69.9391 8.111 70.1155 8.1374 70.2798 8.20137C70.4441 8.26537 70.5917 8.36531 70.7118 8.49377C70.8319 8.62226 70.9214 8.776 70.9739 8.9436C71.0261 9.11123 71.0401 9.28841 71.0143 9.46206V11.7904H70.301V9.64017C70.301 9.06187 70.049 8.77433 69.5209 8.77433C69.4016 8.76883 69.2824 8.78907 69.1716 8.83368C69.0609 8.87826 68.9611 8.94617 68.8793 9.03274C68.7971 9.1193 68.735 9.22247 68.6968 9.33515C68.6589 9.44786 68.6457 9.56744 68.6581 9.6857V11.7904H67.9447L67.9455 8.19363ZM75.0434 7.29823V8.2096H75.8268V8.80786H75.0434V10.657C75.0434 11.034 75.1992 11.1993 75.5548 11.1993C75.6458 11.1989 75.7364 11.1933 75.8268 11.1826V11.7737C75.6985 11.7966 75.5685 11.8089 75.4383 11.8104C74.6456 11.8104 74.3301 11.5324 74.3301 10.8391V8.80786H73.7564V8.2096H74.3301V7.29823H75.0434ZM76.8009 6.78943H77.5071V8.77113H77.5635C77.6583 8.56398 77.8152 8.39102 78.0125 8.27582C78.2098 8.16062 78.4381 8.10876 78.6659 8.12733C78.8409 8.11789 79.0157 8.14699 79.1781 8.21255C79.3402 8.27814 79.4861 8.37854 79.6048 8.50665C79.7238 8.63474 79.8125 8.78738 79.8653 8.95361C79.9181 9.11988 79.9332 9.29566 79.9098 9.46843V11.7904H79.1965V9.64337C79.1965 9.06827 78.9275 8.7775 78.4235 8.7775C78.301 8.76749 78.1776 8.78426 78.0622 8.82665C77.9468 8.86902 77.8421 8.936 77.7555 9.02289C77.6687 9.10979 77.6022 9.21448 77.5604 9.32968C77.5187 9.44486 77.5027 9.56774 77.5137 9.6897V11.7904H76.8009V6.78943ZM84.0684 10.8191C83.9714 11.1477 83.7617 11.432 83.4757 11.6222C83.1896 11.8125 82.8456 11.8966 82.5035 11.8599C82.2653 11.8663 82.0284 11.821 81.8097 11.7272C81.5909 11.6334 81.395 11.4932 81.2362 11.3164C81.0774 11.1397 80.9589 10.9307 80.8894 10.7038C80.8199 10.477 80.8007 10.2377 80.8336 10.0028C80.8018 9.76732 80.8215 9.52781 80.8908 9.3005C80.9603 9.07319 81.0779 8.86336 81.2359 8.68525C81.3939 8.50712 81.5885 8.36484 81.8064 8.26805C82.0245 8.17123 82.2609 8.12216 82.4994 8.12413C83.5051 8.12413 84.1118 8.80786 84.1118 9.9373V10.1849H81.5599V10.2249C81.5486 10.3569 81.5651 10.4898 81.6088 10.6151C81.6522 10.7404 81.7215 10.8552 81.8121 10.9522C81.9028 11.0492 82.013 11.1263 82.1353 11.1785C82.2576 11.2307 82.3897 11.2568 82.5227 11.2553C82.6931 11.2753 82.8657 11.2446 83.0187 11.167C83.1715 11.0894 83.2976 10.9683 83.3814 10.8191H84.0684ZM81.5599 9.66013H83.3855C83.3946 9.53935 83.3781 9.41797 83.3372 9.30386C83.2962 9.18978 83.2319 9.08544 83.1481 8.99765C83.0643 8.90983 82.9629 8.84047 82.8505 8.79402C82.7382 8.74758 82.6172 8.7251 82.4955 8.728C82.3721 8.7265 82.2496 8.74958 82.1353 8.79591C82.0213 8.84222 81.9174 8.91084 81.8303 8.9977C81.7429 9.08459 81.6742 9.18795 81.6278 9.30173C81.5813 9.41548 81.5582 9.53735 81.5599 9.66013Z" fill="white"/>
</g>
<defs>
<clipPath id="clip0">
<rect y="-0.000244141" width="96.1737" height="32" fill="white"/>
</clipPath>
</defs>
</svg>
