<svg width="41" height="32" viewBox="0 0 41 32" fill="none" xmlns="http://www.w3.org/2000/svg">
<path d="M11.259 0.233997C4.469 5.084 0.201 11.971 0.201 19.925C0.201 27.006 4.857 31.177 10.095 31.177C14.945 31.177 19.019 27.103 19.019 22.156C19.019 17.403 15.624 14.202 11.55 14.202C10.58 14.202 9.707 14.396 9.319 14.493C10.289 11.001 14.363 6.83 17.467 5.278L11.259 0.233997ZM33.084 0.233997C26.294 5.084 22.026 11.971 22.026 19.925C22.026 27.006 26.779 31.177 32.017 31.177C36.77 31.177 40.844 27.103 40.844 22.156C40.844 17.403 37.546 14.202 33.375 14.202C32.405 14.202 31.532 14.396 31.144 14.493C32.211 11.001 36.188 6.83 39.292 5.278L33.084 0.233997Z" fill="#4230DD"/>
</svg>
