<svg width="109" height="32" viewBox="0 0 109 32" fill="none" xmlns="http://www.w3.org/2000/svg">
<g clip-path="url(#clip0)">
<path d="M104.942 31.95H4.68885C2.44317 31.95 0.678711 30.1927 0.678711 27.9563V3.99352C0.678711 1.75702 2.44317 -0.000244141 4.68885 -0.000244141H104.942C107.188 -0.000244141 108.952 1.75702 108.952 3.99352V27.9563C108.952 30.1927 107.188 31.95 104.942 31.95Z" fill="black"/>
<path d="M104.942 0.63876C106.787 0.63876 108.311 2.15639 108.311 3.99352V27.9563C108.311 29.7934 106.787 31.3111 104.942 31.3111H4.68885C2.84418 31.3111 1.32033 29.7934 1.32033 27.9563V3.99352C1.32033 2.15639 2.84418 0.63876 4.68885 0.63876H104.942ZM104.942 -0.000244141H4.68885C2.44317 -0.000244141 0.678711 1.83689 0.678711 3.99352V27.9563C0.678711 30.1927 2.44317 31.95 4.68885 31.95H104.942C107.188 31.95 108.952 30.1927 108.952 27.9563V3.99352C108.952 1.83689 107.188 -0.000244141 104.942 -0.000244141Z" fill="#A6A6A6"/>
<path d="M38.6931 8.14701C38.6931 8.78602 38.5324 9.34515 38.1315 9.74452C37.6503 10.2238 37.089 10.4634 36.367 10.4634C35.6453 10.4634 35.084 10.2238 34.6026 9.74452C34.1214 9.26526 33.8809 8.70613 33.8809 7.98725C33.8809 7.26837 34.1214 6.70925 34.6026 6.22999C35.084 5.75075 35.6453 5.51111 36.367 5.51111C36.6878 5.51111 37.0088 5.591 37.3296 5.75075C37.6503 5.91048 37.8909 6.07023 38.0513 6.30988L37.6503 6.70925C37.3296 6.30988 36.9286 6.15012 36.367 6.15012C35.8859 6.15012 35.4047 6.30988 35.084 6.70925C34.6828 7.02876 34.5224 7.50799 34.5224 8.06714C34.5224 8.62627 34.6828 9.1055 35.084 9.42501C35.4849 9.74452 35.8859 9.98413 36.367 9.98413C36.9286 9.98413 37.3296 9.82438 37.7305 9.42501C37.9711 9.18539 38.1315 8.86588 38.1315 8.46651H36.367V7.8275H38.6931V8.14701ZM42.3824 6.15012H40.2167V7.66774H42.222V8.2269H40.2167V9.74452H42.3824V10.3835H39.5752V5.591H42.3824V6.15012ZM45.0289 10.3835H44.3874V6.15012H43.0239V5.591H46.3925V6.15012H45.0289V10.3835ZM48.7182 10.3835V5.591H49.36V10.3835H48.7182ZM52.0868 10.3835H51.4453V6.15012H50.0818V5.591H53.3701V6.15012H52.0066V10.3835H52.0868ZM59.706 9.74452C59.2248 10.2238 58.6635 10.4634 57.9415 10.4634C57.2198 10.4634 56.6585 10.2238 56.177 9.74452C55.6959 9.26526 55.4553 8.70613 55.4553 7.98725C55.4553 7.26837 55.6959 6.70925 56.177 6.22999C56.6585 5.75075 57.2198 5.51111 57.9415 5.51111C58.6635 5.51111 59.2248 5.75075 59.706 6.22999C60.1874 6.70925 60.4279 7.26837 60.4279 7.98725C60.4279 8.70613 60.1874 9.26526 59.706 9.74452ZM56.6584 9.34515C56.9792 9.66465 57.4604 9.90427 57.9415 9.90427C58.4229 9.90427 58.904 9.74452 59.2248 9.34515C59.5456 9.02564 59.7861 8.54638 59.7861 7.98725C59.7861 7.42813 59.6258 6.94887 59.2248 6.62939C58.904 6.30988 58.4229 6.07023 57.9415 6.07023C57.4604 6.07023 56.9792 6.22999 56.6584 6.62939C56.3374 6.94887 56.0968 7.42813 56.0968 7.98725C56.0968 8.54638 56.2572 9.02564 56.6584 9.34515ZM61.31 10.3835V5.591H62.032L64.3578 9.34515V5.591H64.9993V10.3835H64.3578L61.8716 6.46963V10.3835H61.31Z" fill="white" stroke="white" stroke-width="0.0290909" stroke-miterlimit="10"/>
<path d="M55.295 17.4126C53.3702 17.4126 51.8463 18.8504 51.8463 20.8472C51.8463 22.7643 53.3702 24.2819 55.295 24.2819C57.2199 24.2819 58.7438 22.8441 58.7438 20.8472C58.7438 18.7705 57.2199 17.4126 55.295 17.4126ZM55.295 22.8441C54.2526 22.8441 53.3702 21.9655 53.3702 20.7674C53.3702 19.5692 54.2526 18.6906 55.295 18.6906C56.3378 18.6906 57.2199 19.4894 57.2199 20.7674C57.2199 21.9655 56.3378 22.8441 55.295 22.8441ZM47.8362 17.4126C45.9114 17.4126 44.3875 18.8504 44.3875 20.8472C44.3875 22.7643 45.9114 24.2819 47.8362 24.2819C49.7611 24.2819 51.285 22.8441 51.285 20.8472C51.285 18.7705 49.7611 17.4126 47.8362 17.4126ZM47.8362 22.8441C46.7938 22.8441 45.9114 21.9655 45.9114 20.7674C45.9114 19.5692 46.7938 18.6906 47.8362 18.6906C48.879 18.6906 49.7611 19.4894 49.7611 20.7674C49.7611 21.9655 48.879 22.8441 47.8362 22.8441ZM38.9338 18.451V19.8887H42.3825C42.3023 20.6875 41.9815 21.3265 41.5806 21.7259C41.0992 22.2051 40.2973 22.7643 38.9338 22.7643C36.7684 22.7643 35.1643 21.0869 35.1643 18.9302C35.1643 16.7736 36.8485 15.0962 38.9338 15.0962C40.0567 15.0962 40.9388 15.5755 41.5806 16.1346L42.6231 15.0962C41.741 14.2975 40.618 13.6584 39.0139 13.6584C36.1268 13.6584 33.6404 16.0547 33.6404 18.9302C33.6404 21.8058 36.1268 24.202 39.0139 24.202C40.618 24.202 41.741 23.7228 42.7033 22.6844C43.6658 21.7259 43.9866 20.368 43.9866 19.3296C43.9866 19.0101 43.9866 18.6906 43.9064 18.451H38.9338ZM75.3459 19.5692C75.0249 18.7705 74.2229 17.4126 72.4585 17.4126C70.694 17.4126 69.2503 18.7705 69.2503 20.8472C69.2503 22.7643 70.694 24.2819 72.6189 24.2819C74.1428 24.2819 75.105 23.3234 75.4261 22.7643L74.3031 21.9655C73.9022 22.5246 73.4208 22.924 72.6189 22.924C71.817 22.924 71.3356 22.6045 70.9346 21.8856L75.5063 19.9686L75.3459 19.5692ZM70.694 20.6875C70.694 19.4095 71.7368 18.6906 72.4585 18.6906C73.0198 18.6906 73.5814 19.0101 73.7418 19.4095L70.694 20.6875ZM66.9245 23.9624H68.4484V13.978H66.9245V23.9624ZM64.5183 18.1315C64.1173 17.7321 63.4758 17.3327 62.6736 17.3327C60.9896 17.3327 59.3856 18.8504 59.3856 20.7674C59.3856 22.6844 60.9092 24.1221 62.6736 24.1221C63.4758 24.1221 64.1173 23.7228 64.4381 23.3234H64.5183V23.8026C64.5183 25.0806 63.7966 25.7995 62.6736 25.7995C61.7915 25.7995 61.15 25.1605 60.9896 24.6014L59.7063 25.1605C60.1073 26.0392 61.0698 27.1574 62.7541 27.1574C64.5183 27.1574 65.962 26.119 65.962 23.6429V17.5723H64.5183V18.1315ZM62.7541 22.8441C61.7114 22.8441 60.829 21.9655 60.829 20.7674C60.829 19.5692 61.7114 18.6906 62.7541 18.6906C63.7966 18.6906 64.5988 19.5692 64.5988 20.7674C64.5988 21.9655 63.7966 22.8441 62.7541 22.8441ZM82.3233 13.978H78.7141V23.9624H80.238V20.2082H82.3233C84.0075 20.2082 85.6116 19.0101 85.6116 17.0931C85.6116 15.1761 84.0075 13.978 82.3233 13.978ZM82.4037 18.7705H80.238V15.3358H82.4037C83.5264 15.3358 84.1679 16.2943 84.1679 17.0132C84.0877 17.8919 83.4462 18.7705 82.4037 18.7705ZM91.627 17.3327C90.504 17.3327 89.3811 17.812 88.9802 18.8504L90.3437 19.4095C90.6644 18.8504 91.1456 18.6906 91.7072 18.6906C92.5091 18.6906 93.2311 19.1699 93.3112 19.9686V20.0485C93.0704 19.8887 92.4289 19.6491 91.7874 19.6491C90.3437 19.6491 88.9 20.4479 88.9 21.8856C88.9 23.2435 90.1031 24.1221 91.3864 24.1221C92.4289 24.1221 92.91 23.6429 93.3112 23.1636H93.3914V23.9624H94.8349V20.1284C94.6745 18.3711 93.3112 17.3327 91.627 17.3327ZM91.4666 22.8441C90.9852 22.8441 90.2635 22.6045 90.2635 21.9655C90.2635 21.1667 91.1456 20.9271 91.8675 20.9271C92.5091 20.9271 92.8298 21.0869 93.2311 21.2466C93.0704 22.2051 92.2685 22.8441 91.4666 22.8441ZM99.8877 17.5723L98.2034 21.8856H98.1232L96.3587 17.5723H94.7547L97.4015 23.6429L95.8776 26.9977H97.4015L101.492 17.5723H99.8877ZM86.4138 23.9624H87.9377V13.978H86.4138V23.9624Z" fill="white"/>
<path d="M9.01808 5.99036C8.77746 6.22997 8.69727 6.62934 8.69727 7.10861V24.7611C8.69727 25.2404 8.85767 25.6397 9.09827 25.8793L9.17846 25.9592L19.1236 16.0547V15.8949L9.01808 5.99036Z" fill="url(#paint0_linear)"/>
<path d="M22.3318 19.4095L19.0435 16.1346V15.895L22.3318 12.6201L22.412 12.7L26.3419 14.9365C27.4647 15.5755 27.4647 16.6139 26.3419 17.2529L22.3318 19.4095Z" fill="url(#paint1_linear)"/>
<path d="M22.4119 19.3298L19.0434 15.975L9.01807 25.9594C9.41907 26.3588 9.98049 26.3588 10.7023 26.0393L22.4119 19.3298Z" fill="url(#paint2_linear)"/>
<path d="M22.4119 12.6203L10.7023 5.9906C9.98049 5.59123 9.41907 5.67109 9.01807 6.07046L19.0434 15.975L22.4119 12.6203Z" fill="url(#paint3_linear)"/>
<path opacity="0.2" d="M22.3317 19.2496L10.7023 25.7994C10.0607 26.1988 9.49929 26.1189 9.09826 25.7994L9.01807 25.8793L9.09826 25.9592C9.49929 26.2787 10.0607 26.3586 10.7023 25.9592L22.3317 19.2496Z" fill="black"/>
<path opacity="0.12" d="M9.01808 25.7997C8.77746 25.56 8.69727 25.1606 8.69727 24.6814V24.7613C8.69727 25.2405 8.85767 25.6399 9.09827 25.8795V25.7997H9.01808ZM26.3418 17.0134L22.3317 19.2499L22.4119 19.3298L26.3418 17.0932C26.9032 16.7737 27.1438 16.3743 27.1438 15.975C27.1438 16.3743 26.823 16.6939 26.3418 17.0134Z" fill="black"/>
<path opacity="0.25" d="M10.7023 6.07044L26.3418 14.9366C26.823 15.2561 27.1438 15.5756 27.1438 15.975C27.1438 15.5756 26.9032 15.1763 26.3418 14.8567L10.7023 5.99055C9.5795 5.35154 8.69727 5.8308 8.69727 7.1088V7.18869C8.69727 5.99055 9.5795 5.43143 10.7023 6.07044Z" fill="white"/>
</g>
<defs>
<linearGradient id="paint0_linear" x1="18.1612" y1="6.95684" x2="4.75577" y2="20.4163" gradientUnits="userSpaceOnUse">
<stop stop-color="#00A0FF"/>
<stop offset="0.007" stop-color="#00A1FF"/>
<stop offset="0.26" stop-color="#00BEFF"/>
<stop offset="0.512" stop-color="#00D2FF"/>
<stop offset="0.76" stop-color="#00DFFF"/>
<stop offset="1" stop-color="#00E3FF"/>
</linearGradient>
<linearGradient id="paint1_linear" x1="27.8128" y1="15.9757" x2="8.4062" y2="15.9757" gradientUnits="userSpaceOnUse">
<stop stop-color="#FFE000"/>
<stop offset="0.409" stop-color="#FFBD00"/>
<stop offset="0.775" stop-color="#FFA500"/>
<stop offset="1" stop-color="#FF9C00"/>
</linearGradient>
<linearGradient id="paint2_linear" x1="20.5889" y1="17.8089" x2="2.41097" y2="36.0612" gradientUnits="userSpaceOnUse">
<stop stop-color="#FF3A44"/>
<stop offset="1" stop-color="#C31162"/>
</linearGradient>
<linearGradient id="paint3_linear" x1="6.52937" y1="0.140512" x2="14.6471" y2="8.29142" gradientUnits="userSpaceOnUse">
<stop stop-color="#32A071"/>
<stop offset="0.069" stop-color="#2DA771"/>
<stop offset="0.476" stop-color="#15CF74"/>
<stop offset="0.801" stop-color="#06E775"/>
<stop offset="1" stop-color="#00F076"/>
</linearGradient>
<clipPath id="clip0">
<rect x="0.523438" y="-0.000244141" width="108.476" height="32" fill="white"/>
</clipPath>
</defs>
</svg>
