<svg width="23" height="23" viewBox="0 0 23 23" fill="none" xmlns="http://www.w3.org/2000/svg">
<path d="M11.5001 2.11118C14.5707 2.11118 14.9344 2.12285 16.1471 2.17807C17.2683 2.22914 17.8772 2.41614 18.2825 2.57328C18.8192 2.78151 19.2024 3.03029 19.6048 3.43193C20.0072 3.83357 20.2564 4.21598 20.465 4.75171C20.6225 5.15623 20.8098 5.764 20.861 6.88308C20.9163 8.09347 20.928 8.45647 20.928 11.5213C20.928 14.5862 20.9163 14.9492 20.861 16.1596C20.8098 17.2787 20.6225 17.8864 20.465 18.291C20.2564 18.8267 20.0072 19.2091 19.6048 19.6107C19.2024 20.0124 18.8192 20.2612 18.2825 20.4693C17.8772 20.6265 17.2683 20.8135 16.1471 20.8646C14.9346 20.9198 14.5709 20.9315 11.5001 20.9315C8.42927 20.9315 8.06558 20.9198 6.85314 20.8646C5.7319 20.8135 5.12298 20.6265 4.71775 20.4693C4.18096 20.2612 3.79783 20.0124 3.39543 19.6107C2.99303 19.2091 2.74378 18.8267 2.53521 18.291C2.37772 17.8864 2.19038 17.2787 2.1392 16.1596C2.08388 14.9492 2.07219 14.5862 2.07219 11.5213C2.07219 8.45647 2.08388 8.09347 2.1392 6.88312C2.19038 5.764 2.37772 5.15623 2.53521 4.75171C2.74378 4.21598 2.99303 3.83357 3.39543 3.43193C3.79783 3.03029 4.18096 2.78151 4.71775 2.57328C5.12298 2.41614 5.7319 2.22914 6.85309 2.17807C8.06576 2.12285 8.42945 2.11118 11.5001 2.11118ZM11.5001 0.0429688C8.37686 0.0429688 7.98528 0.0561821 6.75869 0.112043C5.5346 0.167812 4.69867 0.361821 3.96714 0.64559C3.21091 0.938927 2.56959 1.33141 1.93027 1.96952C1.29095 2.60764 0.897725 3.24776 0.603834 4.00256C0.31953 4.73271 0.125156 5.56707 0.0692808 6.78885C0.0133147 8.0131 0.00012207 8.40398 0.00012207 11.5213C0.00012207 14.6387 0.0133147 15.0296 0.0692808 16.2538C0.125156 17.4756 0.31953 18.31 0.603834 19.0401C0.897725 19.7949 1.29095 20.435 1.93027 21.0732C2.56959 21.7113 3.21091 22.1037 3.96714 22.3971C4.69867 22.6809 5.5346 22.8749 6.75869 22.9306C7.98528 22.9865 8.37686 22.9997 11.5001 22.9997C14.6233 22.9997 15.015 22.9865 16.2415 22.9306C17.4656 22.8749 18.3015 22.6809 19.0331 22.3971C19.7893 22.1037 20.4306 21.7113 21.0699 21.0732C21.7092 20.435 22.1025 19.7949 22.3964 19.0401C22.6807 18.31 22.875 17.4756 22.9309 16.2538C22.9869 15.0296 23.0001 14.6387 23.0001 11.5213C23.0001 8.40398 22.9869 8.0131 22.9309 6.78885C22.875 5.56707 22.6807 4.73271 22.3964 4.00256C22.1025 3.24776 21.7092 2.60764 21.0699 1.96952C20.4306 1.33141 19.7893 0.938927 19.0331 0.64559C18.3015 0.361821 17.4656 0.167812 16.2415 0.112043C15.015 0.0561821 14.6233 0.0429688 11.5001 0.0429688ZM11.5001 5.62703C8.23864 5.62703 5.59467 8.26602 5.59467 11.5213C5.59467 14.7767 8.23864 17.4156 11.5001 17.4156C14.7616 17.4156 17.4055 14.7767 17.4055 11.5213C17.4055 8.26602 14.7616 5.62703 11.5001 5.62703ZM11.5001 15.3475C9.38302 15.3475 7.66674 13.6344 7.66674 11.5213C7.66674 9.40825 9.38302 7.6952 11.5001 7.6952C13.6172 7.6952 15.3335 9.40825 15.3335 11.5213C15.3335 13.6344 13.6172 15.3475 11.5001 15.3475ZM19.0188 5.39416C19.0188 6.15488 18.401 6.77158 17.6388 6.77158C16.8767 6.77158 16.2588 6.15488 16.2588 5.39416C16.2588 4.63343 16.8767 4.01678 17.6388 4.01678C18.401 4.01678 19.0188 4.63343 19.0188 5.39416Z" fill="#CAF4E0"/>
</svg>
