<svg fill="none" height="30" viewBox="0 0 150 30" width="150" xmlns="http://www.w3.org/2000/svg"><g fill="#f4e02d"><path d="m14.0525 2.80813c.306-.90706 1.589-.90706 1.895 0l2.2819 6.76262c.1358.40263.5113.67545.9362.68025l7.1368.0804c.9572.0107 1.3536 1.2309.5856 1.8022l-5.7265 4.26c-.341.2536-.4844.695-.3577 1.1006l2.129 6.8123c.2855.9137-.7524 1.6678-1.5332 1.1139l-5.821-4.1299c-.3465-.2459-.8107-.2459-1.1572 0l-5.82105 4.1299c-.78076.5539-1.81866-.2002-1.53311-1.1139l2.12892-6.8123c.12676-.4056-.01667-.847-.35761-1.1006l-5.72651-4.26c-.76808-.5713-.37164-1.7915.5856-1.8022l7.13676-.0804c.4249-.0048.8004-.27762.9362-.68026z"/><path d="m44.0525 2.80813c.306-.90706 1.589-.90706 1.895 0l2.2819 6.76262c.1358.40263.5113.67545.9362.68025l7.1368.0804c.9572.0107 1.3536 1.2309.5856 1.8022l-5.7265 4.26c-.341.2536-.4844.695-.3577 1.1006l2.129 6.8123c.2855.9137-.7524 1.6678-1.5332 1.1139l-5.821-4.1299c-.3465-.2459-.8107-.2459-1.1572 0l-5.821 4.1299c-.7808.5539-1.8187-.2002-1.5332-1.1139l2.129-6.8123c.1267-.4056-.0167-.847-.3577-1.1006l-5.7265-4.26c-.768-.5713-.3716-1.7915.5856-1.8022l7.1368-.0804c.4249-.0048.8004-.27762.9362-.68026z"/><path d="m74.0525 2.80813c.306-.90706 1.589-.90706 1.895 0l2.2819 6.76262c.1358.40263.5113.67545.9362.68025l7.1368.0804c.9572.0107 1.3536 1.2309.5856 1.8022l-5.7265 4.26c-.341.2536-.4844.695-.3577 1.1006l2.129 6.8123c.2855.9137-.7524 1.6678-1.5332 1.1139l-5.821-4.1299c-.3465-.2459-.8107-.2459-1.1572 0l-5.821 4.1299c-.7808.5539-1.8187-.2002-1.5332-1.1139l2.129-6.8123c.1267-.4056-.0167-.847-.3577-1.1006l-5.7265-4.26c-.768-.5713-.3716-1.7915.5856-1.8022l7.1368-.0804c.4249-.0048.8004-.27762.9362-.68026z"/><path d="m104.052 2.80813c.307-.90706 1.589-.90706 1.896 0l2.281 6.76262c.136.40263.512.67545.937.68025l7.136.0804c.958.0107 1.354 1.2309.586 1.8022l-5.727 4.26c-.34.2536-.484.695-.357 1.1006l2.129 6.8123c.285.9137-.753 1.6678-1.533 1.1139l-5.821-4.1299c-.347-.2459-.811-.2459-1.158 0l-5.8206 4.1299c-.7808.5539-1.8187-.2002-1.5332-1.1139l2.129-6.8123c.1267-.4056-.0167-.847-.3577-1.1006l-5.7265-4.26c-.768-.5713-.3716-1.7915.5856-1.8022l7.1364-.0804c.425-.0048.801-.27762.937-.68026z"/><path d="m134.052 2.80813c.307-.90706 1.589-.90706 1.896 0l2.281 6.76262c.136.40263.512.67545.937.68025l7.136.0804c.958.0107 1.354 1.2309.586 1.8022l-5.727 4.26c-.34.2536-.484.695-.357 1.1006l2.129 6.8123c.285.9137-.753 1.6678-1.533 1.1139l-5.821-4.1299c-.347-.2459-.811-.2459-1.158 0l-5.821 4.1299c-.78.5539-1.818-.2002-1.533-1.1139l2.129-6.8123c.127-.4056-.017-.847-.357-1.1006l-5.727-4.26c-.768-.5713-.372-1.7915.586-1.8022l7.136-.0804c.425-.0048.801-.27762.937-.68026z"/></g></svg>