<svg width="227" height="32" viewBox="0 0 227 32" fill="none" xmlns="http://www.w3.org/2000/svg">
<path fill-rule="evenodd" clip-rule="evenodd" d="M16.3375 32C25.3604 32 32.6749 24.8366 32.6749 16C32.6749 7.16344 25.3604 0 16.3375 0C7.31453 0 0 7.16344 0 16C0 24.8366 7.31453 32 16.3375 32ZM21.0047 6.30685C21.2271 6.24507 21.4636 6.27457 21.6626 6.38891C21.8616 6.50325 22.0068 6.69313 22.0665 6.91708L22.0669 6.91859L23.6579 12.9454C23.7549 13.2397 23.8338 13.54 23.8939 13.8447C24.1702 15.22 24.0718 16.6498 23.6092 17.9819C23.1464 19.3145 22.3366 20.4993 21.2659 21.4104C20.1952 22.3214 18.9037 22.9246 17.529 23.1556C17.0387 23.238 16.5443 23.2719 16.0526 23.2581L18.0796 19.5609C18.3924 18.9903 18.1871 18.2722 17.621 17.957C17.055 17.6418 16.3425 17.8488 16.0297 18.4194L13.6183 22.7835L13.6023 22.7775L12.3161 25.0738C12.0166 25.6087 11.344 25.802 10.8138 25.5057C10.3108 25.2245 10.1168 24.6035 10.3542 24.0838L11.7426 21.6364L16.1398 13.5756C16.4552 13.0065 16.2532 12.2874 15.6886 11.9696C15.124 11.6517 14.4106 11.8554 14.0952 12.4245L10.0262 19.7658C9.79987 19.4011 9.60327 19.0159 9.43924 18.6138C8.85196 17.174 8.70944 15.5833 9.03029 14.0494C9.35114 12.5155 10.1205 11.1096 11.2378 10.0151C12.3484 8.92733 13.7514 8.19739 15.266 7.91907L21.0038 6.30709L21.0047 6.30685ZM148.928 28.4351H142.91V15.0483H139.784V9.96131H142.91V9.54058C142.91 7.37319 143.535 5.66477 144.786 4.41533C146.036 3.1659 147.665 2.54118 149.67 2.54118C152.015 2.54118 153.813 3.1149 155.063 4.26234L152.875 7.93416C152.38 7.50068 151.729 7.28394 150.921 7.28394C150.348 7.28394 149.866 7.47518 149.475 7.85766C149.11 8.24014 148.928 8.80112 148.928 9.54058V9.96131H152.758V15.0483H148.928V28.4351ZM56.022 28.4351H49.3007V2.92366H68.4095V8.66087H56.022V12.6387H68.1359V18.3759H56.022V28.4351ZM76.5419 28.4351H70.524V2.92366H76.5419V28.4351ZM92.4317 28.4351H98.4105V9.96131H92.3926V12.1414C90.9598 10.382 89.1101 9.50233 86.8437 9.50233C84.4209 9.50233 82.4279 10.382 80.8649 12.1414C79.3018 13.8754 78.5202 16.2212 78.5202 19.1791C78.5202 22.2134 79.3018 24.5976 80.8649 26.3315C82.4279 28.0399 84.4209 28.8941 86.8437 28.8941C89.032 28.8941 90.8947 28.0272 92.4317 26.2932V28.4351ZM108.819 28.8941C107.126 28.8941 105.472 28.6391 103.856 28.1292C102.241 27.5937 100.939 26.8925 99.9486 26.0255L102.45 21.8182C103.179 22.4557 104.195 23.0294 105.498 23.5394C106.826 24.0494 108.025 24.3043 109.093 24.3043C110.786 24.3043 111.633 23.8709 111.633 23.0039C111.633 22.5959 111.255 22.2899 110.499 22.086C109.744 21.882 108.832 21.7035 107.764 21.5505C106.696 21.372 105.615 21.1297 104.521 20.8238C103.453 20.4923 102.541 19.8931 101.785 19.0261C101.03 18.1336 100.652 16.9862 100.652 15.5838C100.652 13.8754 101.368 12.4347 102.801 11.2617C104.26 10.0888 106.24 9.50233 108.741 9.50233C111.711 9.50233 114.342 10.3183 116.635 11.9502L114.329 16.1192C113.73 15.5583 112.922 15.0866 111.906 14.7041C110.89 14.2961 109.848 14.0921 108.78 14.0921C108.077 14.0921 107.504 14.2196 107.061 14.4746C106.644 14.7041 106.435 14.9973 106.435 15.3543C106.435 15.7113 106.813 15.979 107.569 16.1575C108.324 16.336 109.236 16.5272 110.304 16.7312C111.372 16.9097 112.44 17.1774 113.508 17.5344C114.577 17.8659 115.488 18.4906 116.244 19.4086C116.999 20.301 117.377 21.4485 117.377 22.8509C117.377 24.6358 116.609 26.0893 115.072 27.2112C113.561 28.3331 111.476 28.8941 108.819 28.8941ZM132.124 28.4351H138.142V15.2778C138.142 13.4929 137.621 12.0905 136.579 11.0705C135.537 10.0251 133.973 9.50233 131.889 9.50233C129.128 9.50233 126.953 10.4075 125.363 12.2179V2.92366H119.346V28.4351H125.363V16.5017C126.353 15.3033 127.565 14.7041 128.998 14.7041C131.082 14.7041 132.124 15.6985 132.124 17.6874V28.4351ZM156.346 26.0638C158.221 27.9507 160.709 28.8941 163.809 28.8941C166.936 28.8941 169.436 27.9507 171.312 26.0638C173.188 24.1769 174.126 21.882 174.126 19.1791C174.126 16.4762 173.188 14.1941 171.312 12.3327C169.436 10.4458 166.936 9.50233 163.809 9.50233C160.709 9.50233 158.221 10.4458 156.346 12.3327C154.496 14.1941 153.571 16.4762 153.571 19.1791C153.571 21.882 154.496 24.1769 156.346 26.0638ZM166.818 22.4302C166.089 23.2716 165.086 23.6924 163.809 23.6924C162.559 23.6924 161.569 23.2716 160.839 22.4302C160.11 21.5632 159.745 20.4795 159.745 19.1791C159.745 17.9042 160.11 16.846 160.839 16.0045C161.569 15.1376 162.559 14.7041 163.809 14.7041C165.086 14.7041 166.089 15.1376 166.818 16.0045C167.574 16.846 167.952 17.9042 167.952 19.1791C167.952 20.4795 167.574 21.5632 166.818 22.4302ZM185.579 28.8941C182.479 28.8941 179.991 27.9507 178.115 26.0638C176.265 24.1769 175.34 21.882 175.34 19.1791C175.34 16.4762 176.265 14.1941 178.115 12.3327C179.991 10.4458 182.479 9.50233 185.579 9.50233C188.705 9.50233 191.206 10.4458 193.081 12.3327C194.957 14.1941 195.895 16.4762 195.895 19.1791C195.895 21.882 194.957 24.1769 193.081 26.0638C191.206 27.9507 188.705 28.8941 185.579 28.8941ZM185.579 23.6924C186.855 23.6924 187.858 23.2716 188.588 22.4302C189.343 21.5632 189.721 20.4795 189.721 19.1791C189.721 17.9042 189.343 16.846 188.588 16.0045C187.858 15.1376 186.855 14.7041 185.579 14.7041C184.328 14.7041 183.338 15.1376 182.609 16.0045C181.879 16.846 181.515 17.9042 181.515 19.1791C181.515 20.4795 181.879 21.5632 182.609 22.4302C183.338 23.2716 184.328 23.6924 185.579 23.6924ZM211.021 28.4351H217V2.92366H211.021V12.1414C209.588 10.382 207.726 9.50233 205.433 9.50233C203.01 9.50233 201.017 10.382 199.454 12.1414C197.891 13.8754 196.825 16.2212 196.825 19.1791C196.825 22.2134 197.891 24.5976 199.454 26.3315C201.017 28.0399 203.01 28.8941 205.433 28.8941C207.621 28.8941 209.484 28.0272 211.021 26.2932V28.4351ZM92.3642 19.3228C92.3642 21.8199 91.2982 23.7051 88.5266 23.7051C86.3235 23.6355 84.6889 22.0356 84.5468 19.3228C84.4047 16.61 86.2524 14.7319 88.5266 14.7319C91.1561 14.7319 92.3642 16.8257 92.3642 19.3228ZM207.067 23.7051C209.383 23.7051 211.26 21.8968 211.26 19.3229C211.26 16.7489 209.383 14.6624 207.067 14.6624C204.509 14.6624 202.945 16.7489 202.945 19.3229C202.945 21.8968 204.752 23.7051 207.067 23.7051ZM223.151 10.2965C221.063 10.2965 219.364 8.63248 219.364 6.58824C219.364 4.54401 221.063 2.88001 223.151 2.88001C225.238 2.88001 226.937 4.54401 226.937 6.58824C226.937 8.63248 225.238 10.2965 223.151 10.2965ZM223.151 3.63295C221.486 3.63295 220.133 4.95813 220.133 6.58824C220.133 8.21836 221.486 9.54354 223.151 9.54354C224.815 9.54354 226.168 8.21836 226.168 6.58824C226.168 4.95813 224.815 3.63295 223.151 3.63295ZM222.943 6.28707C223.154 6.28707 223.308 6.24566 223.4 6.1666C223.493 6.0913 223.543 5.9633 223.543 5.7826C223.543 5.60566 223.493 5.48142 223.4 5.40236C223.308 5.32707 223.154 5.28942 222.943 5.28942H222.512V6.28707H222.943ZM222.512 6.97601V8.44425H221.49V4.56283H223.051C223.573 4.56283 223.954 4.64942 224.196 4.8226C224.442 4.99201 224.561 5.26307 224.561 5.63577C224.561 5.89177 224.5 6.1026 224.373 6.26824C224.246 6.43013 224.058 6.55436 223.8 6.62966C223.942 6.66354 224.065 6.73507 224.177 6.84424C224.288 6.95342 224.4 7.11907 224.511 7.34495L225.069 8.44425H223.981L223.496 7.48048C223.4 7.28848 223.3 7.15295 223.2 7.08519C223.1 7.01366 222.966 6.97601 222.801 6.97601H222.512Z" fill="white"/>
</svg>
